<svg width="161" height="198" fill="none" xmlns="http://www.w3.org/2000/svg"><path d="M83.27 197.671c42.576 0 77.09-4.84 77.09-10.811s-34.514-10.811-77.09-10.811c-42.575 0-77.089 4.84-77.089 10.811s34.514 10.811 77.09 10.811z" fill="#002649"/><path d="M145.473 46.836c-6.13-.892-15.938 7.839-21.102 11.257 3.158-8.174 10.886-18.242 10.105-30.39-.891-14.304-19.356-24.52-30.018-20.805-12.706 4.458-16.05 23.294-16.83 29.758h-.26c-5.312-12.891-3.715-16.57-10.625-26.526-8.21-11.777-31.95-13.3-38.34 2.118-3.976 9.622.668 30.65 2.934 42.39-2.934-3.641-8.507-10.106-15.9-12.409C11.727 37.994-4.991 60.21 2.18 74.551c6.353 12.706 22.514 16.607 30.501 34.291.78 2.266 1.115 6.018 1.523 8.359.52 2.935.26 10.179.26 10.179l-.52 32.099v.112l-.148 35.182c13.374 1.561 30.575 2.489 49.337 2.489 18.984 0 36.371-.966 49.82-2.563l-.186-35.071v-.112l-.891-44.136c1.783-11.962 19.17-25.114 26.898-39.269 5.349-13.3-5.462-28.16-13.301-29.275z" fill="#30D4F9"/><path d="M43.455 110.216c45.288 35.368 74.006 5.164 82.142-1.783 9.437-8.025 19.022-18.464 25.821-30.873 4.681-11.703-2.118-22.105-8.991-23.108-5.387-.78-22.254 14.6-23.851 9.399-1.486-4.867 7.801-19.765 7.133-30.427-.78-12.557-12.818-17.164-22.18-13.895-11.145 3.901-13.894 30.427-17.275 27.047-4.681-11.332-5.833-17.833-10.886-27.418-5.907-11.109-23.294-12.409-30.798.185-6.13 10.291.631 34.217 2.638 44.508-2.564-3.195-12.67-10.774-19.17-12.78C16 47.356 3.145 61.028 9.461 73.62c3.195 6.391 14.489 13.821 21.77 21.029 5.164 5.052 7.245 11.071 12.223 15.566z" fill="#BCF3FF"/><path d="M49.288 35.542c2.638 8.99 9.808 14.823 16.05 13.003 6.241-1.82 9.176-10.588 6.575-19.58-2.637-8.99-9.808-14.823-16.05-13.002-6.24 1.82-9.176 10.588-6.575 19.579zM19.678 78.34c5.573 6.13 14.192 7.728 19.17 3.567 5.016-4.198 4.533-12.557-1.04-18.724-5.573-6.13-14.192-7.728-19.17-3.567-5.016 4.16-4.57 12.557 1.04 18.724zm76.718-41.424c-2.043 8.285 1.45 16.273 7.765 17.796 6.316 1.56 13.114-3.9 15.121-12.223 2.006-8.285-1.449-16.272-7.765-17.795-6.353-1.524-13.114 3.938-15.12 12.222zm33.622 29.387c-4.755 6.056-5.127 13.375-.817 16.31 4.272 2.972 11.628.446 16.347-5.61 4.755-6.056 5.126-13.375.817-16.31-4.273-2.935-11.591-.445-16.347 5.61zM46.761 91.38c2.564-7.69 9.883-12.185 16.682-10.55C65.746 69.2 74.03 60.545 83.95 60.545c9.474 0 17.499 7.913 20.211 18.799 6.39-.78 12.966 3.64 15.38 10.848 2.713 8.062-.817 16.569-7.876 18.947-4.384 1.486-9.102.26-12.706-2.823-3.826 4.866-9.139 7.913-15.009 7.913-5.944 0-11.331-3.121-15.158-8.136-3.715 4.049-9.102 5.944-14.117 4.235-7.096-2.378-10.625-10.848-7.913-18.947z" fill="#FFB3D7"/><path opacity=".2" d="M127.269 140.643l5.127.149-.334-16.272c-2.564.074-8.731.26-16.979 1.597-13.077 2.155-22.216 13.672 12.186 14.526zm-75.752-11.219c-7.876-1.301-11.591-2.081-17.016-2.081l-.26 14.564c34.514.631 29.796-10.403 17.276-12.483zm81.325 33.585l-.335-15.752c-4.086 0-6.91.185-16.384 1.56-14.229 2.043-12.557 13.969 16.719 14.192zm-91.653 1.709c20.248-.781 14.86-11.963 7.17-14.006-4.83-1.301-6.204-1.524-14.229-2.007l-.297 16.236c4.904.074 1.598 0 7.356-.223z" fill="#2A224B"/></svg>