<svg width="32" height="32" fill="none" xmlns="http://www.w3.org/2000/svg"><g clip-path="url(#clip0)" fill="#fff"><path d="M30.515 22.724c.378-.817.694-1.669.932-2.547.008-.018.008-.035.017-.053a15.96 15.96 0 00.536-4.12c0-3.794-1.326-7.282-3.54-10.03a.528.528 0 00-.114-.141 15.61 15.61 0 00-2.003-2.03.388.388 0 00-.132-.105A16.004 16.004 0 0019.37.36a12.618 12.618 0 00-1.546-.255 15.852 15.852 0 00-3.654 0c-.545.053-1.063.141-1.546.255a15.922 15.922 0 00-6.826 3.33.655.655 0 00-.149.122 16.662 16.662 0 00-1.994 2.02.622.622 0 00-.114.141A15.941 15.941 0 000 16.004a15.626 15.626 0 00.562 4.182c.237.878.554 1.73.931 2.547a.605.605 0 00.027.07c.008.009.008.018.017.026 2.565 5.42 8.09 9.18 14.467 9.18 6.386 0 11.903-3.76 14.468-9.18.008-.008.008-.017.017-.026l.026-.079zM14.081 1.177c.597-.07 1.247-.105 1.923-.105.589 0 1.151.017 1.687.07.053.009.105.009.15.017.026 0 .043.01.06.01.431.052.853.131 1.274.219-.325.641-1.906 1.37-3.18 1.74-1.273-.37-2.854-1.099-3.18-1.74.422-.08.844-.158 1.266-.21zm-.685 29.47c.298-.421 1.264-.983 2.6-1.37 1.344.386 2.301.949 2.6 1.37-.747.167-1.634.255-2.61.246-.948.009-1.835-.07-2.59-.246zm6.298-.167c-.185-.57-.756-1.089-1.713-1.563a10.885 10.885 0 00-1.845-.694l-.14-.035-.14.035c-.098.026-.985.272-1.846.694-.957.474-1.528.992-1.712 1.563a14.995 14.995 0 01-9.619-7.694l3.294-1.696a.532.532 0 00.228-.711.533.533 0 00-.711-.229l-3.25 1.678a15.38 15.38 0 01-.553-1.546l1.721-.887a.532.532 0 00.229-.712.533.533 0 00-.712-.228l-1.52.782a15.143 15.143 0 01-.35-3.241A14.86 14.86 0 014.19 6.843l5.903 2.011a.536.536 0 00.668-.334.526.526 0 00-.326-.667L4.92 5.982c.395-.44.817-.852 1.265-1.239l3.513 1.195a.536.536 0 00.668-.334.526.526 0 00-.325-.667l-2.89-.975a14.886 14.886 0 014.638-2.302c.536 1.493 3.417 2.363 4.067 2.539l.14.035.141-.035c.65-.176 3.531-1.046 4.067-2.539 1.687.5 3.259 1.283 4.638 2.302l-2.881.983a.526.526 0 00-.325.668.536.536 0 00.667.334l3.523-1.204c.448.387.87.8 1.265 1.239l-5.525 1.88a.526.526 0 00-.325.667.536.536 0 00.667.334l5.903-2.011a14.863 14.863 0 013.136 9.152c0 1.116-.123 2.196-.351 3.242l-1.511-.782a.527.527 0 10-.483.94l1.721.887a15.38 15.38 0 01-.553 1.546l-3.25-1.678a.527.527 0 10-.483.94l3.285 1.695c-1.941 3.769-5.429 6.623-9.627 7.686z"/><path d="M22.733 24.472c-.922.94-1.968 1.186-3.11.72-1.739-.711-3.083-2.802-3.083-4.128 0-.281.483-1.028 1.529-1.766l.228-.158v-3.522a.529.529 0 00-.527-.527.529.529 0 00-.527.527v2.205h-2.486v-2.205a.529.529 0 00-.527-.527.529.529 0 00-.527.527v3.522l.229.158c.64.448 1.528 1.31 1.528 1.766 0 1.326-1.344 3.426-3.083 4.128-1.142.466-2.188.229-3.11-.72a.528.528 0 10-.755.738c.817.834 1.765 1.265 2.775 1.265.492 0 .993-.106 1.494-.308 1.335-.544 2.565-1.8 3.223-3.136.66 1.345 1.89 2.592 3.224 3.136.5.202 1.002.308 1.493.308 1.002 0 1.95-.43 2.776-1.265a.527.527 0 00-.009-.747.538.538 0 00-.755.01zm-7.625-5.604h1.793a5.99 5.99 0 00-.896.922 6.92 6.92 0 00-.896-.922zm-1.502-4.858c0 .29.238.527.527.527h3.725c.29 0 .527-.237.527-.527a.529.529 0 00-.527-.527h-3.725a.529.529 0 00-.527.527zm3.382-1.071c.29 0 .527-.237.527-.527a.529.529 0 00-.527-.527H15.02a.529.529 0 00-.527.527c0 .29.238.527.527.527h1.968zm-4.972 1.765a4.35 4.35 0 00-2.942-4.11c-.009 0-.018-.01-.027-.01L4.436 9.048a.539.539 0 00-.668.334.539.539 0 00.334.668l1.906.632a4.35 4.35 0 001.652 8.371 4.36 4.36 0 004.356-4.348zm-4.348 3.294a3.295 3.295 0 010-6.588 3.295 3.295 0 013.294 3.294 3.3 3.3 0 01-3.294 3.294z"/><path d="M7.668 17.366c.505 0 .914-1.192.914-2.662s-.41-2.661-.914-2.661-.913 1.192-.913 2.662.409 2.661.913 2.661zm21.02-2.662a4.358 4.358 0 00-2.696-4.023l1.906-.632a.531.531 0 00.334-.668.524.524 0 00-.668-.334l-4.603 1.538c-.009 0-.017.008-.026.008-1.704.589-2.943 2.205-2.943 4.111a4.352 4.352 0 004.348 4.348 4.352 4.352 0 004.348-4.348zm-4.348 3.294a3.295 3.295 0 113.294-3.294 3.3 3.3 0 01-3.294 3.294z"/><path d="M24.34 17.366c.505 0 .914-1.192.914-2.662s-.41-2.661-.914-2.661-.913 1.192-.913 2.662.409 2.661.913 2.661zM11.163 23.82a.378.378 0 10-.489-.575.378.378 0 00.489.575zm-1.503-.7a.378.378 0 10-.489-.575.378.378 0 00.489.576zm1.589-.862a.378.378 0 10-.489-.576.378.378 0 00.489.576zm10.121 1.518a.378.378 0 10-.577-.489.378.378 0 00.576.49zm1.499-.704a.378.378 0 10-.577-.49.378.378 0 00.576.49zm-1.589-.858a.378.378 0 10-.577-.49.378.378 0 00.576.49zm-5.275-10.927a3.323 3.323 0 003.32-3.32 3.323 3.323 0 00-3.32-3.32 3.329 3.329 0 00-3.32 3.32c-.01 1.827 1.484 3.32 3.32 3.32zm0-5.595a2.272 2.272 0 012.266 2.266 2.272 2.272 0 01-2.267 2.267 2.272 2.272 0 01-2.266-2.267 2.26 2.26 0 012.267-2.266z"/><path d="M16.004 9.76c.34 0 .615-.807.615-1.802 0-.994-.275-1.8-.615-1.8-.34 0-.615.806-.615 1.8 0 .995.276 1.801.615 1.801z"/></g><defs><clipPath id="clip0"><path class="rect" fill="#fff" d="M0 0h32v32H0z"/></clipPath></defs></svg>