<svg width="98" height="22" fill="none" xmlns="http://www.w3.org/2000/svg"><path d="M0 17.532V4.468h3.092v5.692l4.352-5.692h3.722l-4.953 6.205 5.353 6.83H7.787l-4.695-6.005v6.005H0v.029zm12.683 0V4.468h3.12v13.064h-3.12zm8.847 0V7.2h-4.152V4.468H28.86V7.2h-4.18v10.332h-3.15z" fill="#fff"/><path d="M35.1 0h2.691l-5.668 22H29.43L35.1 0zm60.209 0H98l-5.669 22h-2.69l5.668-22zM50.388 10.986a7 7 0 01.516-2.704 6.974 6.974 0 011.488-2.277 6.807 6.807 0 012.148-1.451 6.504 6.504 0 012.576-.513c.888 0 1.747.171 2.577.513.83.341 1.546.825 2.176 1.48a7.127 7.127 0 011.46 2.22c.315.853.487 1.764.487 2.732 0 .825-.115 1.594-.344 2.305a6.461 6.461 0 01-1.03 1.964 6.473 6.473 0 01-2.348 1.964c-.945.455-1.918.711-2.978.711-.887 0-1.746-.17-2.548-.512-.801-.342-1.546-.825-2.147-1.48a6.859 6.859 0 01-1.489-2.248 7.013 7.013 0 01-.544-2.704zm3.207 0c0 1.138.343 2.077 1.002 2.846.658.768 1.489 1.138 2.462 1.138.974 0 1.804-.37 2.462-1.138.659-.769 1.002-1.708 1.002-2.846 0-1.139-.343-2.106-1.002-2.875-.658-.768-1.488-1.138-2.462-1.138-.973 0-1.803.37-2.462 1.138-.659.769-1.002 1.736-1.002 2.875zm12.368 6.973V4.04h3.493c2.462 0 4.38.57 5.755 1.737 1.402 1.166 2.09 3.187 2.09 5.208 0 1.224-.287 2.704-.83 3.643-.545.939-1.346 1.708-2.406 2.305a6.58 6.58 0 01-1.975.74c-.716.142-1.575.228-2.634.228h-3.493v.057zm3.092-2.818h.687c1.374 0 2.434-.341 3.207-.996.773-.655 1.174-1.992 1.174-3.16 0-1.166-.401-2.504-1.174-3.158-.773-.655-1.832-.996-3.207-.996h-.687v8.31zm10.421 2.818l.029-13.918h8.102v2.704h-5.039l-.028 2.79h4.323v2.675H82.54v3.016h5.124v2.761h-8.188v-.028zm-32.294-3.387a4.944 4.944 0 01-1.976.427c-1.116 0-2.032-.37-2.748-1.11-.687-.74-1.06-1.708-1.06-2.903s.344-2.163 1.06-2.931c.716-.769 1.603-1.139 2.72-1.139.63 0 1.26.142 1.832.427.573.285 1.145.712 1.718 1.31l.343-3.33c-.6-.428-1.26-.712-1.918-.94a7.33 7.33 0 00-2.118-.313c-.916 0-1.804.17-2.663.512-.83.342-1.575.854-2.233 1.48a6.938 6.938 0 00-1.46 2.249c-.344.854-.487 1.764-.487 2.732 0 1.11.23 2.163.687 3.102.458.94 1.088 1.765 1.947 2.42.601.455 1.26.825 1.975 1.052a7.343 7.343 0 004.324.086 6.748 6.748 0 001.832-.854v-.2l-.2-2.96c-.516.342-1.06.655-1.575.883z" fill="#30D4F9"/></svg>