<svg xmlns="http://www.w3.org/2000/svg"><symbol id="fb"><path fill-rule="evenodd" clip-rule="evenodd" d="M16 0H4a4 4 0 00-4 4v12a4 4 0 004 4h12a4 4 0 004-4V4a4 4 0 00-4-4zm-1 18h-3.132v-5.842h2.211l.332-2.667h-2.543V7.79c0-.772.207-1.298 1.272-1.298h1.36V4.104A17.503 17.503 0 0012.519 4c-1.96 0-3.302 1.243-3.302 3.525V9.49H7v2.667h2.217V18H5a3 3 0 01-3-3V5a3 3 0 013-3h10a3 3 0 013 3v10a3 3 0 01-3 3z" fill="#fff"/></symbol><symbol id="insta"><path fill-rule="evenodd" clip-rule="evenodd" d="M0 4a4 4 0 014-4h12a4 4 0 014 4v12a4 4 0 01-4 4H4a4 4 0 01-4-4V4zm2 1a3 3 0 013-3h10a3 3 0 013 3v10a3 3 0 01-3 3H5a3 3 0 01-3-3V5zm14.5-.25a1.25 1.25 0 10-2.5 0 1.25 1.25 0 002.5 0zM10 5a5 5 0 110 10 5 5 0 010-10zm-3 5a3 3 0 116 0 3 3 0 01-6 0z" fill="#fff"/></symbol></svg>