<svg width="971" height="784" viewBox="0 0 971 784" fill="none" xmlns="http://www.w3.org/2000/svg">
<rect y="224.617" width="197.932" height="52.464" rx="26.232" transform="rotate(-45 0 224.617)" fill="white" fill-opacity="0.05"/>
<rect x="281.397" y="215.448" width="78.731" height="52.464" rx="26.232" transform="rotate(-45 281.397 215.448)" fill="white" fill-opacity="0.05"/>
<rect x="878.231" y="93.8269" width="78.731" height="52.464" rx="26.232" transform="rotate(-45 878.231 93.8269)" fill="white" fill-opacity="0.05"/>
<rect x="23.8477" y="650.661" width="78.731" height="52.464" rx="26.232" transform="rotate(-45 23.8477 650.661)" fill="white" fill-opacity="0.05"/>
<rect x="60.8115" y="434.664" width="197.932" height="52.464" rx="26.232" transform="rotate(-45 60.8115 434.664)" fill="white" fill-opacity="0.05"/>
<rect x="237" y="606.959" width="197.932" height="52.464" rx="26.232" transform="rotate(-45 237 606.959)" fill="white" fill-opacity="0.05"/>
<rect x="675.339" y="655.442" width="197.932" height="52.464" rx="26.232" transform="rotate(-45 675.339 655.442)" fill="white" fill-opacity="0.05"/>
<rect x="361.938" y="746.872" width="197.932" height="52.464" rx="26.232" transform="rotate(-45 361.938 746.872)" fill="white" fill-opacity="0.05"/>
<rect x="538.408" y="437.824" width="330.826" height="52.464" rx="26.232" transform="rotate(-45 538.408 437.824)" fill="white" fill-opacity="0.05"/>
<rect x="431.636" y="233.93" width="330.826" height="52.464" rx="26.232" transform="rotate(-45 431.636 233.93)" fill="white" fill-opacity="0.05"/>
</svg>
